<?xml version="1.0" encoding="UTF-8" standalone="no"?>
<!DOCTYPE svg PUBLIC "-//W3C//DTD SVG 1.1//EN"
 "http://www.w3.org/Graphics/SVG/1.1/DTD/svg11.dtd">
<!-- Generated by graphviz version 2.47.0 (20210316.0004)
 -->
<!-- Title: dependencies Pages: 1 -->
<svg width="564pt" height="211pt"
 viewBox="0.00 0.00 564.00 211.00" xmlns="http://www.w3.org/2000/svg" xmlns:xlink="http://www.w3.org/1999/xlink">
<g id="graph0" class="graph" transform="scale(1 1) rotate(0) translate(4 207)">
<title>dependencies</title>
<polygon fill="white" stroke="transparent" points="-4,4 -4,-207 560,-207 560,4 -4,4"/>
<text text-anchor="start" x="257.01" y="-42.4" font-family="Times-12" font-weight="bold" font-size="14.00">Legend</text>
<polygon fill="#ffffb3" stroke="transparent" points="44,-10 44,-30 64,-30 64,-10 44,-10"/>
<text text-anchor="start" x="67.63" y="-15.4" font-family="Times-12" font-size="14.00"> &#160;Declarations</text>
<polygon fill="#8dd3c7" stroke="transparent" points="157,-10 157,-30 177,-30 177,-10 157,-10"/>
<text text-anchor="start" x="180.73" y="-15.4" font-family="Times-12" font-size="14.00"> &#160;Module</text>
<polygon fill="#80b1d3" stroke="transparent" points="243,-10 243,-30 263,-30 263,-10 243,-10"/>
<text text-anchor="start" x="266.78" y="-15.4" font-family="Times-12" font-size="14.00"> &#160;Bootstrap</text>
<polygon fill="#fdb462" stroke="transparent" points="340,-10 340,-30 360,-30 360,-10 340,-10"/>
<text text-anchor="start" x="363.67" y="-15.4" font-family="Times-12" font-size="14.00"> &#160;Providers</text>
<polygon fill="#fb8072" stroke="transparent" points="436,-10 436,-30 456,-30 456,-10 436,-10"/>
<text text-anchor="start" x="459.73" y="-15.4" font-family="Times-12" font-size="14.00"> &#160;Exports</text>
<g id="clust1" class="cluster">
<title>cluster_MoviesModule</title>
<polygon fill="none" stroke="black" stroke-dasharray="1,5" points="8,-70 8,-195 548,-195 548,-70 8,-70"/>
</g>
<g id="clust3" class="cluster">
<title>cluster_MoviesModule_imports</title>
<polygon fill="none" stroke="black" points="178,-78 178,-130 540,-130 540,-78 178,-78"/>
</g>
<g id="clust6" class="cluster">
<title>cluster_MoviesModule_providers</title>
<polygon fill="none" stroke="black" points="16,-78 16,-130 170,-130 170,-78 16,-78"/>
</g>
<!-- GenresModule -->
<g id="node1" class="node">
<title>GenresModule</title>
<polygon fill="#8dd3c7" stroke="black" points="531.69,-122 528.69,-126 507.69,-126 504.69,-122 432.31,-122 432.31,-86 531.69,-86 531.69,-122"/>
<text text-anchor="middle" x="482" y="-99.8" font-family="Times,serif" font-size="14.00">GenresModule</text>
</g>
<!-- MoviesModule -->
<g id="node4" class="node">
<title>MoviesModule</title>
<polygon fill="#8dd3c7" stroke="black" points="343.55,-187 340.55,-191 319.55,-191 316.55,-187 242.45,-187 242.45,-151 343.55,-151 343.55,-187"/>
<text text-anchor="middle" x="293" y="-164.8" font-family="Times,serif" font-size="14.00">MoviesModule</text>
</g>
<!-- GenresModule&#45;&gt;MoviesModule -->
<g id="edge1" class="edge">
<title>GenresModule&#45;&gt;MoviesModule</title>
<path fill="none" stroke="black" d="M482,-122.11C482,-141.34 482,-169 482,-169 482,-169 353.65,-169 353.65,-169"/>
<polygon fill="black" stroke="black" points="353.65,-165.5 343.65,-169 353.65,-172.5 353.65,-165.5"/>
</g>
<!-- PaginationModule -->
<g id="node2" class="node">
<title>PaginationModule</title>
<polygon fill="#8dd3c7" stroke="black" points="414.93,-122 411.93,-126 390.93,-126 387.93,-122 295.07,-122 295.07,-86 414.93,-86 414.93,-122"/>
<text text-anchor="middle" x="355" y="-99.8" font-family="Times,serif" font-size="14.00">PaginationModule</text>
</g>
<!-- PaginationModule&#45;&gt;MoviesModule -->
<g id="edge2" class="edge">
<title>PaginationModule&#45;&gt;MoviesModule</title>
<path fill="none" stroke="black" d="M319.53,-122.11C319.53,-122.11 319.53,-140.99 319.53,-140.99"/>
<polygon fill="black" stroke="black" points="316.03,-140.99 319.53,-150.99 323.03,-140.99 316.03,-140.99"/>
</g>
<!-- UsersModule -->
<g id="node3" class="node">
<title>UsersModule</title>
<polygon fill="#8dd3c7" stroke="black" points="277.92,-122 274.92,-126 253.92,-126 250.92,-122 186.08,-122 186.08,-86 277.92,-86 277.92,-122"/>
<text text-anchor="middle" x="232" y="-99.8" font-family="Times,serif" font-size="14.00">UsersModule</text>
</g>
<!-- UsersModule&#45;&gt;MoviesModule -->
<g id="edge3" class="edge">
<title>UsersModule&#45;&gt;MoviesModule</title>
<path fill="none" stroke="black" d="M259.97,-122.11C259.97,-122.11 259.97,-140.99 259.97,-140.99"/>
<polygon fill="black" stroke="black" points="256.47,-140.99 259.97,-150.99 263.47,-140.99 256.47,-140.99"/>
</g>
<!-- MoviesService -->
<g id="node5" class="node">
<title>MoviesService</title>
<ellipse fill="#fdb462" stroke="black" cx="93" cy="-104" rx="68.92" ry="18"/>
<text text-anchor="middle" x="93" y="-99.8" font-family="Times,serif" font-size="14.00">MoviesService</text>
</g>
<!-- MoviesService&#45;&gt;MoviesModule -->
<g id="edge4" class="edge">
<title>MoviesService&#45;&gt;MoviesModule</title>
<path fill="none" stroke="black" d="M93,-122.11C93,-141.34 93,-169 93,-169 93,-169 232.27,-169 232.27,-169"/>
<polygon fill="black" stroke="black" points="232.27,-172.5 242.27,-169 232.27,-165.5 232.27,-172.5"/>
</g>
</g>
</svg>
