<?xml version="1.0" encoding="UTF-8" standalone="no"?>
<!DOCTYPE svg PUBLIC "-//W3C//DTD SVG 1.1//EN"
 "http://www.w3.org/Graphics/SVG/1.1/DTD/svg11.dtd">
<!-- Generated by graphviz version 2.47.0 (20210316.0004)
 -->
<!-- Title: dependencies Pages: 1 -->
<svg width="764pt" height="211pt"
 viewBox="0.00 0.00 764.00 211.00" xmlns="http://www.w3.org/2000/svg" xmlns:xlink="http://www.w3.org/1999/xlink">
<g id="graph0" class="graph" transform="scale(1 1) rotate(0) translate(4 207)">
<title>dependencies</title>
<polygon fill="white" stroke="transparent" points="-4,4 -4,-207 760,-207 760,4 -4,4"/>
<text text-anchor="start" x="357.01" y="-42.4" font-family="Times-12" font-weight="bold" font-size="14.00">Legend</text>
<polygon fill="#ffffb3" stroke="transparent" points="144,-10 144,-30 164,-30 164,-10 144,-10"/>
<text text-anchor="start" x="167.63" y="-15.4" font-family="Times-12" font-size="14.00"> &#160;Declarations</text>
<polygon fill="#8dd3c7" stroke="transparent" points="257,-10 257,-30 277,-30 277,-10 257,-10"/>
<text text-anchor="start" x="280.73" y="-15.4" font-family="Times-12" font-size="14.00"> &#160;Module</text>
<polygon fill="#80b1d3" stroke="transparent" points="343,-10 343,-30 363,-30 363,-10 343,-10"/>
<text text-anchor="start" x="366.78" y="-15.4" font-family="Times-12" font-size="14.00"> &#160;Bootstrap</text>
<polygon fill="#fdb462" stroke="transparent" points="440,-10 440,-30 460,-30 460,-10 440,-10"/>
<text text-anchor="start" x="463.67" y="-15.4" font-family="Times-12" font-size="14.00"> &#160;Providers</text>
<polygon fill="#fb8072" stroke="transparent" points="536,-10 536,-30 556,-30 556,-10 536,-10"/>
<text text-anchor="start" x="559.73" y="-15.4" font-family="Times-12" font-size="14.00"> &#160;Exports</text>
<g id="clust1" class="cluster">
<title>cluster_AppModule</title>
<polygon fill="none" stroke="black" stroke-dasharray="1,5" points="8,-70 8,-195 748,-195 748,-70 8,-70"/>
</g>
<g id="clust3" class="cluster">
<title>cluster_AppModule_imports</title>
<polygon fill="none" stroke="black" points="154,-78 154,-130 740,-130 740,-78 154,-78"/>
</g>
<g id="clust6" class="cluster">
<title>cluster_AppModule_providers</title>
<polygon fill="none" stroke="black" points="16,-78 16,-130 146,-130 146,-78 16,-78"/>
</g>
<!-- AuthModule -->
<g id="node1" class="node">
<title>AuthModule</title>
<polygon fill="#8dd3c7" stroke="black" points="731.55,-122 728.55,-126 707.55,-126 704.55,-122 644.45,-122 644.45,-86 731.55,-86 731.55,-122"/>
<text text-anchor="middle" x="688" y="-99.8" font-family="Times,serif" font-size="14.00">AuthModule</text>
</g>
<!-- AppModule -->
<g id="node6" class="node">
<title>AppModule</title>
<polygon fill="#8dd3c7" stroke="black" points="436.66,-187 433.66,-191 412.66,-191 409.66,-187 353.34,-187 353.34,-151 436.66,-151 436.66,-187"/>
<text text-anchor="middle" x="395" y="-164.8" font-family="Times,serif" font-size="14.00">AppModule</text>
</g>
<!-- AuthModule&#45;&gt;AppModule -->
<g id="edge1" class="edge">
<title>AuthModule&#45;&gt;AppModule</title>
<path fill="none" stroke="black" d="M688,-122.28C688,-143.32 688,-175 688,-175 688,-175 446.67,-175 446.67,-175"/>
<polygon fill="black" stroke="black" points="446.67,-171.5 436.67,-175 446.67,-178.5 446.67,-171.5"/>
</g>
<!-- GenresModule -->
<g id="node2" class="node">
<title>GenresModule</title>
<polygon fill="#8dd3c7" stroke="black" points="626.69,-122 623.69,-126 602.69,-126 599.69,-122 527.31,-122 527.31,-86 626.69,-86 626.69,-122"/>
<text text-anchor="middle" x="577" y="-99.8" font-family="Times,serif" font-size="14.00">GenresModule</text>
</g>
<!-- GenresModule&#45;&gt;AppModule -->
<g id="edge2" class="edge">
<title>GenresModule&#45;&gt;AppModule</title>
<path fill="none" stroke="black" d="M577,-122.02C577,-139.37 577,-163 577,-163 577,-163 446.75,-163 446.75,-163"/>
<polygon fill="black" stroke="black" points="446.75,-159.5 436.75,-163 446.75,-166.5 446.75,-159.5"/>
</g>
<!-- MoviesModule -->
<g id="node3" class="node">
<title>MoviesModule</title>
<polygon fill="#8dd3c7" stroke="black" points="509.55,-122 506.55,-126 485.55,-126 482.55,-122 408.45,-122 408.45,-86 509.55,-86 509.55,-122"/>
<text text-anchor="middle" x="459" y="-99.8" font-family="Times,serif" font-size="14.00">MoviesModule</text>
</g>
<!-- MoviesModule&#45;&gt;AppModule -->
<g id="edge3" class="edge">
<title>MoviesModule&#45;&gt;AppModule</title>
<path fill="none" stroke="black" d="M422.53,-122.11C422.53,-122.11 422.53,-140.99 422.53,-140.99"/>
<polygon fill="black" stroke="black" points="419.03,-140.99 422.53,-150.99 426.03,-140.99 419.03,-140.99"/>
</g>
<!-- PaginationModule -->
<g id="node4" class="node">
<title>PaginationModule</title>
<polygon fill="#8dd3c7" stroke="black" points="390.93,-122 387.93,-126 366.93,-126 363.93,-122 271.07,-122 271.07,-86 390.93,-86 390.93,-122"/>
<text text-anchor="middle" x="331" y="-99.8" font-family="Times,serif" font-size="14.00">PaginationModule</text>
</g>
<!-- PaginationModule&#45;&gt;AppModule -->
<g id="edge4" class="edge">
<title>PaginationModule&#45;&gt;AppModule</title>
<path fill="none" stroke="black" d="M371.94,-122.11C371.94,-122.11 371.94,-140.99 371.94,-140.99"/>
<polygon fill="black" stroke="black" points="368.44,-140.99 371.94,-150.99 375.44,-140.99 368.44,-140.99"/>
</g>
<!-- UsersModule -->
<g id="node5" class="node">
<title>UsersModule</title>
<polygon fill="#8dd3c7" stroke="black" points="253.92,-122 250.92,-126 229.92,-126 226.92,-122 162.08,-122 162.08,-86 253.92,-86 253.92,-122"/>
<text text-anchor="middle" x="208" y="-99.8" font-family="Times,serif" font-size="14.00">UsersModule</text>
</g>
<!-- UsersModule&#45;&gt;AppModule -->
<g id="edge5" class="edge">
<title>UsersModule&#45;&gt;AppModule</title>
<path fill="none" stroke="black" d="M208,-122.02C208,-139.37 208,-163 208,-163 208,-163 343.03,-163 343.03,-163"/>
<polygon fill="black" stroke="black" points="343.03,-166.5 353.03,-163 343.03,-159.5 343.03,-166.5"/>
</g>
<!-- AppService -->
<g id="node7" class="node">
<title>AppService</title>
<ellipse fill="#fdb462" stroke="black" cx="81" cy="-104" rx="56.74" ry="18"/>
<text text-anchor="middle" x="81" y="-99.8" font-family="Times,serif" font-size="14.00">AppService</text>
</g>
<!-- AppService&#45;&gt;AppModule -->
<g id="edge6" class="edge">
<title>AppService&#45;&gt;AppModule</title>
<path fill="none" stroke="black" d="M81,-122.28C81,-143.32 81,-175 81,-175 81,-175 343.3,-175 343.3,-175"/>
<polygon fill="black" stroke="black" points="343.3,-178.5 353.3,-175 343.3,-171.5 343.3,-178.5"/>
</g>
</g>
</svg>
